<svg width="390" height="748" viewBox="0 0 390 748" fill="none" xmlns="http://www.w3.org/2000/svg">
<g clip-path="url(#clip0_1406_1404)">
<path d="M388.193 613.527C633.677 613.527 832.681 476.3 832.681 307.022C832.681 137.744 633.677 0.516998 388.193 0.516998C142.709 0.516998 -56.295 137.744 -56.295 307.022C-56.295 476.3 142.709 613.527 388.193 613.527Z" fill="#1A47BC"/>
<path d="M554.338 418.335H-12.2403V756.032H554.338V418.335Z" fill="#1A47BC"/>
<mask id="mask0_1406_1404" style="mask-type:alpha" maskUnits="userSpaceOnUse" x="143" y="109" width="91" height="108">
<path d="M188.319 217C213.246 217 233.452 192.823 233.452 163C233.452 133.177 213.246 109 188.319 109C163.392 109 143.185 133.177 143.185 163C143.185 192.823 163.392 217 188.319 217Z" fill="#FBFAF5"/>
</mask>
<g mask="url(#mask0_1406_1404)">
<path d="M188.319 217C213.246 217 233.452 192.823 233.452 163C233.452 133.177 213.246 109 188.319 109C163.392 109 143.185 133.177 143.185 163C143.185 192.823 163.392 217 188.319 217Z" fill="#FBFAF5"/>
<path d="M202.134 191.854C223.619 191.854 241.035 173.307 241.035 150.427C241.035 127.547 223.619 109 202.134 109C180.649 109 163.233 127.547 163.233 150.427C163.233 173.307 180.649 191.854 202.134 191.854Z" fill="#152756"/>
</g>
<mask id="mask1_1406_1404" style="mask-type:alpha" maskUnits="userSpaceOnUse" x="264" y="109" width="92" height="108">
<path d="M310.052 217C334.979 217 355.185 192.823 355.185 163C355.185 133.177 334.979 109 310.052 109C285.125 109 264.918 133.177 264.918 163C264.918 192.823 285.125 217 310.052 217Z" fill="#FBFAF5"/>
</mask>
<g mask="url(#mask1_1406_1404)">
<path d="M310.052 217C334.979 217 355.185 192.823 355.185 163C355.185 133.177 334.979 109 310.052 109C285.125 109 264.918 133.177 264.918 163C264.918 192.823 285.125 217 310.052 217Z" fill="#FBFAF5"/>
<path d="M323.867 191.854C345.352 191.854 362.768 173.307 362.768 150.427C362.768 127.547 345.352 109 323.867 109C302.382 109 284.966 127.547 284.966 150.427C284.966 173.307 302.382 191.854 323.867 191.854Z" fill="#152756"/>
</g>
</g>
<defs>
<clipPath id="clip0_1406_1404">
<rect width="390" height="748" fill="white"/>
</clipPath>
</defs>
</svg>
