<svg width="144" height="48" viewBox="0 0 144 48" fill="none" xmlns="http://www.w3.org/2000/svg">
<path d="M69.64 38H64.48L54.8 24.24L50.24 29.08V38H45.84V9.4H50.24V23.88L63.8 9.4H68.72L57.52 21.32L69.64 38ZM80.2988 38.56C71.7388 38.56 66.2588 32.28 66.2588 23.68C66.2588 15.08 71.7388 8.84 80.2988 8.84C88.8588 8.84 94.3388 15.08 94.3388 23.68C94.3388 32.28 88.8588 38.56 80.2988 38.56ZM80.2988 34.76C87.0588 34.76 89.7388 29.56 89.7388 23.68C89.7388 17.8 87.0588 12.64 80.2988 12.64C73.5388 12.64 70.8588 17.8 70.8588 23.68C70.8588 29.56 73.5388 34.76 80.2988 34.76ZM106.995 38.56C99.7553 38.56 94.6753 34.8 94.3553 28.36H98.9153C99.2353 32.2 101.515 34.8 106.875 34.8C111.475 34.8 112.875 32.8 112.875 30.2C112.875 26.56 110.075 26.04 104.875 24.72C100.395 23.52 95.4753 22.08 95.4753 16.64C95.4753 11.68 99.3153 8.84 105.475 8.84C111.995 8.84 116.235 12.16 116.675 17.92H112.115C111.635 14.48 109.675 12.6 105.515 12.6C101.915 12.6 100.075 13.92 100.075 16.4C100.075 19.6 103.075 20.28 106.755 21.2C112.275 22.6 117.475 23.92 117.475 29.96C117.475 34.88 114.155 38.56 106.995 38.56ZM130.069 38.56C122.229 38.56 118.909 34.44 118.909 28.28V9.4H123.309V28.28C123.309 32.72 125.549 34.76 130.069 34.76C134.629 34.76 136.829 32.72 136.829 28.28V9.4H141.269V28.28C141.269 34.44 137.949 38.56 130.069 38.56Z" fill="#1E1E1E"/>
<path d="M10.2939 29.5882V27.529H12.3531V29.5882H10.2939Z" fill="#0000C8"/>
<circle cx="12.3527" cy="27.5296" r="2.05853" fill="#FFFFFC"/>
<path d="M0 21.3535H10.2941V39.8829H3C1.34314 39.8829 0 38.5397 0 36.8829V21.3535Z" fill="#0000C8"/>
<path d="M8.23505 39.8821V29.588H34.9998V39.8821H8.23505Z" fill="#0000C8"/>
<rect y="19.2946" width="10.2941" height="35" transform="rotate(-90 0 19.2946)" fill="#0000C8"/>
<path d="M24.7052 27.5294V8.99995H29.9993C32.7607 8.99995 34.9993 11.2385 34.9993 13.9999V22.7347C34.9993 23.1436 34.7504 23.5113 34.3707 23.6632L24.7052 27.5294Z" fill="#0000C8"/>
<path d="M24.7026 19.2915L24.7054 21.3507L22.6461 21.3535L22.6433 19.2943L24.7026 19.2915Z" fill="#0000C8"/>
<ellipse cx="22.6466" cy="21.3534" rx="2.05853" ry="2.05853" transform="rotate(179.922 22.6466 21.3534)" fill="#FFFFFC"/>
</svg>
