<svg width="127" height="125" viewBox="0 0 127 125" fill="none" xmlns="http://www.w3.org/2000/svg">
<path d="M1.18754 111.769V110.34H7.18615V111.769H4.99865V119.09H3.37504V111.769H1.18754ZM8.32882 119.09V109.757H9.85521V113.792C10.0626 113.558 10.3089 113.383 10.5941 113.267C10.8793 113.144 11.1807 113.082 11.4983 113.082C11.9131 113.082 12.2987 113.182 12.6552 113.383C13.0182 113.584 13.3098 113.876 13.5302 114.258C13.7506 114.634 13.8608 115.094 13.8608 115.639V119.09H12.3344V115.843C12.3344 115.48 12.2274 115.159 12.0135 114.881C11.7997 114.602 11.495 114.463 11.0997 114.463C10.7756 114.463 10.4872 114.576 10.2344 114.803C9.9816 115.023 9.85521 115.36 9.85521 115.814V119.09H8.32882ZM18.134 119.265C17.4923 119.265 16.9219 119.129 16.4229 118.857C15.9303 118.585 15.5446 118.212 15.2659 117.739C14.9937 117.259 14.8576 116.718 14.8576 116.115C14.8576 115.538 14.9905 115.023 15.2562 114.569C15.5284 114.109 15.8946 113.746 16.3548 113.481C16.815 113.215 17.3238 113.082 17.8812 113.082C18.4516 113.082 18.9604 113.215 19.4076 113.481C19.8613 113.74 20.221 114.093 20.4868 114.54C20.7525 114.988 20.8854 115.496 20.8854 116.067V116.621H17.259C17.0969 116.621 16.9382 116.611 16.7826 116.592C16.627 116.572 16.4715 116.55 16.3159 116.524C16.3937 116.945 16.5979 117.292 16.9284 117.564C17.259 117.836 17.6738 117.972 18.1729 117.972C18.5423 117.972 18.8761 117.894 19.1743 117.739C19.4724 117.583 19.7187 117.389 19.9132 117.156L20.2632 118.585C19.9715 118.812 19.6442 118.98 19.2812 119.09C18.9182 119.207 18.5358 119.265 18.134 119.265ZM16.277 115.581C16.6076 115.516 16.9349 115.483 17.259 115.483H18.5132C18.6882 115.483 18.8534 115.49 19.009 115.503C19.1645 115.516 19.3136 115.535 19.4562 115.561C19.359 115.185 19.1678 114.884 18.8826 114.657C18.6039 114.43 18.2669 114.317 17.8715 114.317C17.4826 114.317 17.1456 114.433 16.8604 114.667C16.5752 114.9 16.3807 115.205 16.277 115.581ZM21.9323 119.09V113.257H23.3032V114.278C23.5106 113.941 23.7698 113.678 24.0809 113.49C24.3985 113.296 24.7745 113.199 25.2087 113.199L25.549 114.579C25.4259 114.54 25.2865 114.521 25.1309 114.521C24.6254 114.521 24.2203 114.683 23.9157 115.007C23.611 115.331 23.4587 115.791 23.4587 116.388V119.09H21.9323ZM29.1398 119.265C28.4982 119.265 27.9278 119.129 27.4287 118.857C26.9361 118.585 26.5505 118.212 26.2718 117.739C25.9996 117.259 25.8635 116.718 25.8635 116.115C25.8635 115.538 25.9963 115.023 26.2621 114.569C26.5343 114.109 26.9005 113.746 27.3607 113.481C27.8209 113.215 28.3297 113.082 28.8871 113.082C29.4574 113.082 29.9662 113.215 30.4135 113.481C30.8672 113.74 31.2269 114.093 31.4926 114.54C31.7584 114.988 31.8912 115.496 31.8912 116.067V116.621H28.2648C28.1028 116.621 27.944 116.611 27.7885 116.592C27.6329 116.572 27.4773 116.55 27.3218 116.524C27.3996 116.945 27.6037 117.292 27.9343 117.564C28.2648 117.836 28.6797 117.972 29.1787 117.972C29.5482 117.972 29.882 117.894 30.1801 117.739C30.4783 117.583 30.7246 117.389 30.919 117.156L31.269 118.585C30.9773 118.812 30.65 118.98 30.2871 119.09C29.9241 119.207 29.5417 119.265 29.1398 119.265ZM27.2829 115.581C27.6135 115.516 27.9408 115.483 28.2648 115.483H29.519C29.694 115.483 29.8593 115.49 30.0148 115.503C30.1704 115.516 30.3195 115.535 30.4621 115.561C30.3648 115.185 30.1736 114.884 29.8885 114.657C29.6098 114.43 29.2727 114.317 28.8773 114.317C28.4885 114.317 28.1514 114.433 27.8662 114.667C27.581 114.9 27.3866 115.205 27.2829 115.581ZM35.86 119.09V113.257H37.3864V119.09H35.86ZM36.6281 112.363C36.3883 112.363 36.1841 112.282 36.0156 112.119C35.8535 111.951 35.7725 111.747 35.7725 111.507C35.7725 111.261 35.8535 111.057 36.0156 110.894C36.1841 110.732 36.3883 110.651 36.6281 110.651C36.8744 110.651 37.0785 110.732 37.2406 110.894C37.4026 111.057 37.4836 111.261 37.4836 111.507C37.4836 111.747 37.4026 111.951 37.2406 112.119C37.0785 112.282 36.8744 112.363 36.6281 112.363ZM40.6391 119.265C40.2697 119.265 39.8905 119.204 39.5016 119.081C39.1127 118.951 38.8016 118.769 38.5683 118.536L38.9572 117.058C39.1451 117.331 39.3979 117.564 39.7155 117.758C40.0396 117.946 40.3734 118.04 40.7169 118.04C40.9761 118.04 41.1641 117.988 41.2808 117.885C41.4039 117.775 41.4655 117.642 41.4655 117.486C41.4655 117.311 41.4039 117.185 41.2808 117.107C41.1576 117.023 41.0345 116.958 40.9113 116.913L40.1044 116.611C39.9359 116.54 39.7382 116.446 39.5113 116.329C39.2845 116.206 39.0868 116.034 38.9183 115.814C38.7562 115.587 38.6752 115.292 38.6752 114.929C38.6752 114.599 38.7562 114.294 38.9183 114.015C39.0803 113.737 39.3136 113.513 39.6183 113.344C39.9294 113.169 40.3021 113.082 40.7363 113.082C41.1252 113.082 41.4947 113.15 41.8447 113.286C42.2011 113.416 42.4701 113.578 42.6516 113.772L42.2919 115.211C42.0845 114.926 41.8349 114.706 41.5433 114.55C41.2516 114.388 40.9697 114.307 40.6974 114.307C40.4706 114.307 40.3021 114.359 40.1919 114.463C40.0817 114.56 40.0266 114.676 40.0266 114.813C40.0266 114.916 40.0655 115.013 40.1433 115.104C40.2211 115.195 40.3474 115.273 40.5224 115.338L41.2808 115.629C41.4817 115.701 41.7021 115.801 41.9419 115.931C42.1817 116.054 42.3859 116.229 42.5544 116.456C42.7294 116.682 42.8169 116.994 42.8169 117.389C42.8169 117.946 42.6127 118.4 42.2044 118.75C41.8025 119.094 41.2808 119.265 40.6391 119.265ZM46.8425 119.09V113.257H48.2133V113.976C48.4272 113.685 48.6897 113.464 49.0008 113.315C49.3119 113.16 49.649 113.082 50.0119 113.082C50.4268 113.082 50.8124 113.182 51.1689 113.383C51.5318 113.584 51.8235 113.876 52.0439 114.258C52.2643 114.634 52.3744 115.094 52.3744 115.639V119.09H50.848V115.843C50.848 115.48 50.7411 115.159 50.5272 114.881C50.3133 114.602 50.0087 114.463 49.6133 114.463C49.2893 114.463 49.0008 114.576 48.748 114.803C48.4953 115.023 48.3689 115.36 48.3689 115.814V119.09H46.8425ZM56.5018 119.265C55.925 119.265 55.3967 119.126 54.9171 118.847C54.444 118.569 54.068 118.196 53.7893 117.729C53.5106 117.263 53.3713 116.744 53.3713 116.174C53.3713 115.603 53.5106 115.085 53.7893 114.618C54.068 114.151 54.444 113.779 54.9171 113.5C55.3967 113.221 55.9217 113.082 56.4921 113.082C57.0754 113.082 57.6037 113.221 58.0768 113.5C58.55 113.779 58.9259 114.151 59.2046 114.618C59.4898 115.078 59.6324 115.597 59.6324 116.174C59.6324 116.738 59.4898 117.256 59.2046 117.729C58.9259 118.196 58.55 118.569 58.0768 118.847C57.6037 119.126 57.0787 119.265 56.5018 119.265ZM56.4921 117.885C56.8097 117.885 57.0949 117.807 57.3477 117.651C57.6004 117.496 57.8014 117.288 57.9504 117.029C58.0995 116.77 58.174 116.485 58.174 116.174C58.174 115.856 58.0995 115.571 57.9504 115.318C57.8014 115.059 57.6004 114.851 57.3477 114.696C57.0949 114.54 56.8097 114.463 56.4921 114.463C56.181 114.463 55.899 114.54 55.6463 114.696C55.3935 114.851 55.1926 115.059 55.0435 115.318C54.8944 115.571 54.8199 115.856 54.8199 116.174C54.8199 116.485 54.8944 116.77 55.0435 117.029C55.1926 117.288 55.3935 117.496 55.6463 117.651C55.899 117.807 56.181 117.885 56.4921 117.885ZM63.6589 122.007V113.257H64.9908V113.879C65.2242 113.646 65.4996 113.461 65.8172 113.325C66.1413 113.189 66.4913 113.121 66.8672 113.121C67.4117 113.121 67.9043 113.26 68.345 113.539C68.7857 113.811 69.1357 114.177 69.395 114.638C69.6607 115.098 69.7936 115.61 69.7936 116.174C69.7936 116.731 69.6607 117.243 69.395 117.71C69.1357 118.17 68.7857 118.539 68.345 118.818C67.9043 119.09 67.4117 119.226 66.8672 119.226C66.5367 119.226 66.2288 119.175 65.9436 119.071C65.6649 118.967 65.4121 118.825 65.1853 118.643V122.007H63.6589ZM66.6825 117.875C66.9936 117.875 67.2723 117.797 67.5186 117.642C67.7714 117.486 67.9723 117.282 68.1214 117.029C68.2705 116.77 68.345 116.485 68.345 116.174C68.345 115.863 68.2705 115.581 68.1214 115.328C67.9723 115.069 67.7714 114.861 67.5186 114.706C67.2723 114.55 66.9969 114.472 66.6922 114.472C66.3811 114.472 66.0992 114.55 65.8464 114.706C65.6001 114.861 65.4024 115.069 65.2533 115.328C65.1043 115.581 65.0297 115.863 65.0297 116.174C65.0297 116.485 65.1043 116.77 65.2533 117.029C65.4024 117.282 65.6001 117.486 65.8464 117.642C66.0992 117.797 66.3779 117.875 66.6825 117.875ZM70.905 119.09V113.257H72.2758V114.278C72.4832 113.941 72.7425 113.678 73.0536 113.49C73.3712 113.296 73.7471 113.199 74.1814 113.199L74.5217 114.579C74.3985 114.54 74.2592 114.521 74.1036 114.521C73.598 114.521 73.193 114.683 72.8883 115.007C72.5837 115.331 72.4314 115.791 72.4314 116.388V119.09H70.905ZM77.9667 119.265C77.3898 119.265 76.8616 119.126 76.3819 118.847C75.9088 118.569 75.5329 118.196 75.2542 117.729C74.9755 117.263 74.8361 116.744 74.8361 116.174C74.8361 115.603 74.9755 115.085 75.2542 114.618C75.5329 114.151 75.9088 113.779 76.3819 113.5C76.8616 113.221 77.3866 113.082 77.9569 113.082C78.5403 113.082 79.0685 113.221 79.5417 113.5C80.0148 113.779 80.3907 114.151 80.6694 114.618C80.9546 115.078 81.0972 115.597 81.0972 116.174C81.0972 116.738 80.9546 117.256 80.6694 117.729C80.3907 118.196 80.0148 118.569 79.5417 118.847C79.0685 119.126 78.5435 119.265 77.9667 119.265ZM77.9569 117.885C78.2745 117.885 78.5597 117.807 78.8125 117.651C79.0653 117.496 79.2662 117.288 79.4153 117.029C79.5644 116.77 79.6389 116.485 79.6389 116.174C79.6389 115.856 79.5644 115.571 79.4153 115.318C79.2662 115.059 79.0653 114.851 78.8125 114.696C78.5597 114.54 78.2745 114.463 77.9569 114.463C77.6458 114.463 77.3639 114.54 77.1111 114.696C76.8583 114.851 76.6574 115.059 76.5083 115.318C76.3593 115.571 76.2847 115.856 76.2847 116.174C76.2847 116.485 76.3593 116.77 76.5083 117.029C76.6574 117.288 76.8583 117.496 77.1111 117.651C77.3639 117.807 77.6458 117.885 77.9569 117.885ZM84.8075 119.226C84.2695 119.226 83.7802 119.09 83.3394 118.818C82.8987 118.539 82.5454 118.17 82.2797 117.71C82.0204 117.243 81.8908 116.731 81.8908 116.174C81.8908 115.616 82.0204 115.107 82.2797 114.647C82.5454 114.181 82.8987 113.811 83.3394 113.539C83.7802 113.26 84.2695 113.121 84.8075 113.121C85.138 113.121 85.4427 113.173 85.7214 113.276C86.0065 113.38 86.2626 113.523 86.4894 113.704V109.757H88.0158V119.09H86.6839V118.468C86.457 118.701 86.1815 118.886 85.8575 119.022C85.5334 119.158 85.1834 119.226 84.8075 119.226ZM84.9825 117.875C85.2936 117.875 85.5723 117.797 85.8186 117.642C86.0714 117.486 86.2723 117.282 86.4214 117.029C86.5704 116.77 86.645 116.485 86.645 116.174C86.645 115.863 86.5704 115.581 86.4214 115.328C86.2723 115.069 86.0714 114.861 85.8186 114.706C85.5723 114.55 85.2968 114.472 84.9922 114.472C84.6811 114.472 84.3991 114.55 84.1464 114.706C83.9001 114.861 83.7024 115.069 83.5533 115.328C83.4042 115.581 83.3297 115.863 83.3297 116.174C83.3297 116.485 83.4042 116.77 83.5533 117.029C83.7024 117.282 83.9001 117.486 84.1464 117.642C84.3991 117.797 84.6778 117.875 84.9825 117.875ZM91.7036 119.265C91.2952 119.265 90.9096 119.165 90.5466 118.964C90.1837 118.763 89.892 118.475 89.6716 118.099C89.4512 117.716 89.3411 117.253 89.3411 116.708V113.257H90.8674V116.504C90.8674 116.867 90.9744 117.188 91.1883 117.467C91.4087 117.745 91.7133 117.885 92.1022 117.885C92.4262 117.885 92.7147 117.768 92.9674 117.535C93.2202 117.301 93.3466 116.968 93.3466 116.533V113.257H94.873V119.09H93.4827V118.39C93.2753 118.676 93.0161 118.893 92.7049 119.042C92.3938 119.191 92.06 119.265 91.7036 119.265ZM99.1171 119.265C98.5402 119.265 98.012 119.126 97.5323 118.847C97.0592 118.569 96.6833 118.196 96.4046 117.729C96.1259 117.256 95.9865 116.738 95.9865 116.174C95.9865 115.603 96.1259 115.085 96.4046 114.618C96.6833 114.151 97.0592 113.779 97.5323 113.5C98.012 113.221 98.5402 113.082 99.1171 113.082C99.5254 113.082 99.911 113.15 100.274 113.286C100.637 113.422 100.958 113.62 101.237 113.879L100.828 115.493C100.666 115.214 100.443 114.975 100.157 114.774C99.8722 114.566 99.5416 114.463 99.1657 114.463C98.8416 114.463 98.5499 114.54 98.2907 114.696C98.0379 114.851 97.837 115.059 97.6879 115.318C97.5388 115.571 97.4643 115.856 97.4643 116.174C97.4643 116.485 97.5388 116.77 97.6879 117.029C97.837 117.288 98.0379 117.496 98.2907 117.651C98.5499 117.807 98.8416 117.885 99.1657 117.885C99.5416 117.885 99.8722 117.784 100.157 117.583C100.443 117.376 100.666 117.133 100.828 116.854L101.237 118.468C100.958 118.727 100.637 118.925 100.274 119.061C99.911 119.197 99.5254 119.265 99.1171 119.265ZM102.894 119.09V114.482H101.747V113.257H102.923V111.313H104.391V113.257H105.616V114.482H104.421V119.09H102.894ZM109.326 122.007L111.26 118.138L108.859 113.257H110.551L111.63 115.493C111.727 115.694 111.815 115.882 111.892 116.057C111.97 116.232 112.038 116.413 112.097 116.601C112.161 116.413 112.233 116.232 112.31 116.057C112.395 115.882 112.489 115.694 112.592 115.493L113.691 113.257H115.315L110.969 122.007H109.326ZM118.786 119.265C118.145 119.265 117.574 119.129 117.075 118.857C116.583 118.585 116.197 118.212 115.918 117.739C115.646 117.259 115.51 116.718 115.51 116.115C115.51 115.538 115.643 115.023 115.909 114.569C116.181 114.109 116.547 113.746 117.007 113.481C117.467 113.215 117.976 113.082 118.534 113.082C119.104 113.082 119.613 113.215 120.06 113.481C120.514 113.74 120.873 114.093 121.139 114.54C121.405 114.988 121.538 115.496 121.538 116.067V116.621H117.911C117.749 116.621 117.59 116.611 117.435 116.592C117.279 116.572 117.124 116.55 116.968 116.524C117.046 116.945 117.25 117.292 117.581 117.564C117.911 117.836 118.326 117.972 118.825 117.972C119.195 117.972 119.528 117.894 119.827 117.739C120.125 117.583 120.371 117.389 120.565 117.156L120.915 118.585C120.624 118.812 120.297 118.98 119.934 119.09C119.571 119.207 119.188 119.265 118.786 119.265ZM116.929 115.581C117.26 115.516 117.587 115.483 117.911 115.483H119.165C119.34 115.483 119.506 115.49 119.661 115.503C119.817 115.516 119.966 115.535 120.109 115.561C120.011 115.185 119.82 114.884 119.535 114.657C119.256 114.43 118.919 114.317 118.524 114.317C118.135 114.317 117.798 114.433 117.513 114.667C117.228 114.9 117.033 115.205 116.929 115.581ZM123.265 119.09V114.482H122.118V113.257H123.294V111.313H124.762V113.257H125.987V114.482H124.792V119.09H123.265Z" fill="#1E1E1E" fill-opacity="0.5"/>
<mask id="mask0_1281_1270" style="mask-type:alpha" maskUnits="userSpaceOnUse" x="14" y="0" width="100" height="101">
<circle cx="64" cy="50.0903" r="50" fill="#1A47BC"/>
</mask>
<g mask="url(#mask0_1281_1270)">
<circle cx="64" cy="50.0903" r="50" fill="#1A47BC"/>
<circle cx="64" cy="50.0903" r="50" fill="#FE8E76"/>
<path d="M57.6194 59.6736C62.9651 63.0755 65.748 62.9783 70.3805 59.6736" stroke="#1A47BC" stroke-width="3" stroke-linecap="round"/>
<mask id="mask1_1281_1270" style="mask-type:alpha" maskUnits="userSpaceOnUse" x="41" y="37" width="18" height="21">
<ellipse cx="49.8733" cy="47.9875" rx="8.47572" ry="9.99558" fill="#FBFAF5"/>
</mask>
<g mask="url(#mask1_1281_1270)">
<ellipse cx="49.8733" cy="47.9875" rx="8.47572" ry="9.99558" fill="#FBFAF5"/>
<ellipse cx="53.4795" cy="44.8715" rx="8.10002" ry="7.98405" fill="#1A47BC"/>
</g>
<mask id="mask2_1281_1270" style="mask-type:alpha" maskUnits="userSpaceOnUse" x="69" y="37" width="18" height="21">
<ellipse cx="78.1267" cy="47.9875" rx="8.47572" ry="9.99558" fill="#FBFAF5"/>
</mask>
<g mask="url(#mask2_1281_1270)">
<ellipse cx="78.1267" cy="47.9875" rx="8.47572" ry="9.99558" fill="#FBFAF5"/>
<ellipse cx="81.7315" cy="44.8715" rx="8.10002" ry="7.98405" fill="#1A47BC"/>
</g>
</g>
</svg>
