<svg width="25" height="25" viewBox="0 0 25 25" fill="none" xmlns="http://www.w3.org/2000/svg">
<path d="M3.25 13.4915C3.25 11.296 3.25 10.1982 3.76122 9.28671C4.27244 8.37518 5.20776 7.80359 7.0784 6.66042L8.0784 6.04931C10.1092 4.80829 11.1245 4.18778 12.25 4.18778C13.3755 4.18778 14.3908 4.80829 16.4216 6.04931L17.4216 6.66042C19.2922 7.80359 20.2276 8.37518 20.7388 9.28671C21.25 10.1982 21.25 11.296 21.25 13.4915V13.4915C21.25 17.2684 21.25 19.1569 20.0784 20.3284C18.9069 21.5 17.0212 21.5 13.25 21.5H11.25C7.47876 21.5 5.59315 21.5 4.42157 20.3284C3.25 19.1569 3.25 17.2684 3.25 13.4915V13.4915Z" stroke="#FEC904" stroke-width="2" stroke-linecap="round"/>
<path d="M9.25 20.5V16.5C9.25 15.5681 9.25 15.1022 9.40224 14.7346C9.60523 14.2446 9.99458 13.8552 10.4846 13.6522C10.8522 13.5 11.3181 13.5 12.25 13.5V13.5C13.1819 13.5 13.6478 13.5 14.0154 13.6522C14.5054 13.8552 14.8948 14.2446 15.0978 14.7346C15.25 15.1022 15.25 15.5681 15.25 16.5V20.5" stroke="#FEC904" stroke-width="2" stroke-linecap="round"/>
</svg>
