<svg width="25" height="25" viewBox="0 0 25 25" fill="none" xmlns="http://www.w3.org/2000/svg">
<path d="M3.75 13.7285C3.75 11.533 3.75 10.4353 4.26122 9.52377C4.77244 8.61224 5.70776 8.04065 7.5784 6.89748L8.5784 6.28637C10.6092 5.04535 11.6245 4.42484 12.75 4.42484C13.8755 4.42484 14.8908 5.04535 16.9216 6.28637L17.9216 6.89748C19.7922 8.04065 20.7276 8.61224 21.2388 9.52377C21.75 10.4353 21.75 11.533 21.75 13.7285V13.7285C21.75 17.5055 21.75 19.3939 20.5784 20.5655C19.4069 21.7371 17.5212 21.7371 13.75 21.7371H11.75C7.97876 21.7371 6.09315 21.7371 4.92157 20.5655C3.75 19.3939 3.75 17.5055 3.75 13.7285V13.7285Z" stroke="#FBFAF5" stroke-width="2" stroke-linecap="round"/>
<path d="M9.75 20.7371V16.7371C9.75 15.8052 9.75 15.3392 9.90224 14.9717C10.1052 14.4816 10.4946 14.0923 10.9846 13.8893C11.3522 13.7371 11.8181 13.7371 12.75 13.7371V13.7371C13.6819 13.7371 14.1478 13.7371 14.5154 13.8893C15.0054 14.0923 15.3948 14.4816 15.5978 14.9717C15.75 15.3392 15.75 15.8052 15.75 16.7371V20.7371" stroke="#FBFAF5" stroke-width="2" stroke-linecap="round"/>
</svg>
