<svg width="390" height="590" viewBox="0 0 390 590" fill="none" xmlns="http://www.w3.org/2000/svg">
<g clip-path="url(#clip0_1710_1342)">
<path d="M155.629 233.564H485.902V528.475H381.629C256.813 528.475 155.629 427.291 155.629 302.475V233.564Z" fill="#FE8E76"/>
<path d="M223.726 220.031L554 194.242L472.526 457.207L448.543 463.258C303.735 499.791 175.932 361.522 223.726 220.031Z" fill="#FBFAF5"/>
<path d="M3.20633 46.4004H-2.50567L-11.0497 12.0804H-5.52967L0.518329 39.1044H0.614326L7.71833 12.0804H13.2863L20.4383 39.1044H20.5343L26.5823 12.0804H32.1023L23.5103 46.4004H17.8463L10.5503 18.8004H10.4543L3.20633 46.4004ZM58.0587 46.4004H33.2907V12.0804H57.5787V16.6404H38.5707V26.3844H55.2267V30.9444H38.5707V41.8404H58.0587V46.4004ZM82.7854 46.4004H60.1294V12.0804H65.4094V41.8404H82.7854V46.4004ZM96.0233 47.0724C86.2793 47.0724 79.9913 39.5844 79.9913 29.2644C79.9913 18.8964 86.3273 11.4084 96.0713 11.4084C104.663 11.4084 109.991 16.8804 110.807 23.7444H105.287C104.663 20.3844 102.551 15.9684 95.9753 15.9684C88.3913 15.9684 85.5113 22.4004 85.5113 29.2164C85.5113 36.0804 88.3913 42.5124 95.9753 42.5124C102.599 42.5124 104.951 38.0964 105.287 33.9204H110.807C110.039 41.5524 104.663 47.0724 96.0233 47.0724ZM127.85 47.0724C117.578 47.0724 111.002 39.5364 111.002 29.2164C111.002 18.8964 117.578 11.4084 127.85 11.4084C138.122 11.4084 144.698 18.8964 144.698 29.2164C144.698 39.5364 138.122 47.0724 127.85 47.0724ZM127.85 42.5124C135.962 42.5124 139.178 36.2724 139.178 29.2164C139.178 22.1604 135.962 15.9684 127.85 15.9684C119.738 15.9684 116.522 22.1604 116.522 29.2164C116.522 36.2724 119.738 42.5124 127.85 42.5124ZM152.158 46.4004H146.974V12.0804H153.934L163.822 39.0564H163.918L173.854 12.0804H180.814V46.4004H175.63V19.7604H175.534L166.078 46.4004H161.71L152.254 19.7604H152.158V46.4004ZM209.502 46.4004H184.734V12.0804H209.022V16.6404H190.014V26.3844H206.67V30.9444H190.014V41.8404H209.502V46.4004ZM231.093 46.4004H225.765V16.6404H214.677V12.0804H242.181V16.6404H231.093V46.4004ZM256.419 47.0724C246.147 47.0724 239.571 39.5364 239.571 29.2164C239.571 18.8964 246.147 11.4084 256.419 11.4084C266.691 11.4084 273.267 18.8964 273.267 29.2164C273.267 39.5364 266.691 47.0724 256.419 47.0724ZM256.419 42.5124C264.531 42.5124 267.747 36.2724 267.747 29.2164C267.747 22.1604 264.531 15.9684 256.419 15.9684C248.307 15.9684 245.091 22.1604 245.091 29.2164C245.091 36.2724 248.307 42.5124 256.419 42.5124ZM311.254 46.4004H305.062L293.446 29.8884L287.974 35.6964V46.4004H282.694V12.0804H287.974V29.4564L304.246 12.0804H310.15L296.71 26.3844L311.254 46.4004ZM324.044 47.0724C313.772 47.0724 307.196 39.5364 307.196 29.2164C307.196 18.8964 313.772 11.4084 324.044 11.4084C334.316 11.4084 340.892 18.8964 340.892 29.2164C340.892 39.5364 334.316 47.0724 324.044 47.0724ZM324.044 42.5124C332.156 42.5124 335.372 36.2724 335.372 29.2164C335.372 22.1604 332.156 15.9684 324.044 15.9684C315.932 15.9684 312.716 22.1604 312.716 29.2164C312.716 36.2724 315.932 42.5124 324.044 42.5124ZM356.08 47.0724C347.392 47.0724 341.296 42.5604 340.912 34.8324H346.384C346.768 39.4404 349.504 42.5604 355.936 42.5604C361.456 42.5604 363.136 40.1604 363.136 37.0404C363.136 32.6724 359.776 32.0484 353.536 30.4644C348.16 29.0244 342.256 27.2964 342.256 20.7684C342.256 14.8164 346.864 11.4084 354.256 11.4084C362.08 11.4084 367.168 15.3924 367.696 22.3044H362.224C361.648 18.1764 359.296 15.9204 354.304 15.9204C349.984 15.9204 347.776 17.5044 347.776 20.4804C347.776 24.3204 351.376 25.1364 355.792 26.2404C362.416 27.9204 368.656 29.5044 368.656 36.7524C368.656 42.6564 364.672 47.0724 356.08 47.0724ZM383.768 47.0724C374.36 47.0724 370.376 42.1284 370.376 34.7364V12.0804H375.656V34.7364C375.656 40.0644 378.344 42.5124 383.768 42.5124C389.24 42.5124 391.88 40.0644 391.88 34.7364V12.0804H397.208V34.7364C397.208 42.1284 393.224 47.0724 383.768 47.0724ZM6.03833 105.072C-3.70567 105.072 -9.99367 97.5844 -9.99367 87.2644C-9.99367 76.8964 -3.65767 69.4084 6.08633 69.4084C14.6783 69.4084 20.0063 74.8804 20.8223 81.7444H15.3023C14.6783 78.3844 12.5663 73.9684 5.99033 73.9684C-1.59367 73.9684 -4.47367 80.4004 -4.47367 87.2164C-4.47367 94.0804 -1.59367 100.512 5.99033 100.512C12.6143 100.512 14.9663 96.0964 15.3023 91.9204H20.8223C20.0543 99.5524 14.6783 105.072 6.03833 105.072ZM37.8649 105.072C27.5929 105.072 21.0169 97.5364 21.0169 87.2164C21.0169 76.8964 27.5929 69.4084 37.8649 69.4084C48.1369 69.4084 54.7129 76.8964 54.7129 87.2164C54.7129 97.5364 48.1369 105.072 37.8649 105.072ZM37.8649 100.512C45.9769 100.512 49.1929 94.2724 49.1929 87.2164C49.1929 80.1604 45.9769 73.9684 37.8649 73.9684C29.7529 73.9684 26.5369 80.1604 26.5369 87.2164C26.5369 94.2724 29.7529 100.512 37.8649 100.512ZM69.9008 105.072C61.2128 105.072 55.1168 100.56 54.7328 92.8324H60.2048C60.5888 97.4404 63.3248 100.56 69.7568 100.56C75.2768 100.56 76.9568 98.1604 76.9568 95.0404C76.9568 90.6724 73.5968 90.0484 67.3568 88.4644C61.9808 87.0244 56.0768 85.2964 56.0768 78.7684C56.0768 72.8164 60.6848 69.4084 68.0768 69.4084C75.9008 69.4084 80.9888 73.3924 81.5168 80.3044H76.0448C75.4688 76.1764 73.1168 73.9204 68.1248 73.9204C63.8048 73.9204 61.5968 75.5044 61.5968 78.4804C61.5968 82.3204 65.1968 83.1364 69.6128 84.2404C76.2368 85.9204 82.4768 87.5044 82.4768 94.7524C82.4768 100.656 78.4928 105.072 69.9008 105.072ZM89.7169 104.4H84.4369V70.0804H98.7409C105.221 70.0804 109.973 73.1044 109.973 80.3044C109.973 87.5044 105.221 90.4804 98.7409 90.4804H89.7169V104.4ZM89.7169 85.9204H98.5009C102.485 85.9204 104.501 84.1444 104.501 80.3044C104.501 76.4164 102.485 74.6404 98.5009 74.6404H89.7169V85.9204ZM134.166 104.4H111.51V70.0804H116.79V99.8404H134.166V104.4ZM137.748 104.4H132.18L144.948 70.0804H150.66L163.524 104.4H157.764L154.932 96.1444H140.58L137.748 104.4ZM147.732 74.9764L142.164 91.6804H153.444L147.828 74.9764H147.732ZM174.247 104.4H168.919V90.6724L156.631 70.0804H162.343L171.559 86.4964H171.655L180.871 70.0804H186.535L174.247 90.6724V104.4ZM207.342 105.072C197.598 105.072 191.31 97.5844 191.31 87.2644C191.31 76.8964 197.646 69.4084 207.39 69.4084C215.982 69.4084 221.31 74.8804 222.126 81.7444H216.606C215.982 78.3844 213.87 73.9684 207.294 73.9684C199.71 73.9684 196.83 80.4004 196.83 87.2164C196.83 94.0804 199.71 100.512 207.294 100.512C213.918 100.512 216.27 96.0964 216.606 91.9204H222.126C221.358 99.5524 215.982 105.072 207.342 105.072ZM239.169 105.072C228.897 105.072 222.321 97.5364 222.321 87.2164C222.321 76.8964 228.897 69.4084 239.169 69.4084C249.441 69.4084 256.017 76.8964 256.017 87.2164C256.017 97.5364 249.441 105.072 239.169 105.072ZM239.169 100.512C247.281 100.512 250.497 94.2724 250.497 87.2164C250.497 80.1604 247.281 73.9684 239.169 73.9684C231.057 73.9684 227.841 80.1604 227.841 87.2164C227.841 94.2724 231.057 100.512 239.169 100.512ZM271.205 105.072C262.517 105.072 256.421 100.56 256.037 92.8324H261.509C261.893 97.4404 264.629 100.56 271.061 100.56C276.581 100.56 278.261 98.1604 278.261 95.0404C278.261 90.6724 274.901 90.0484 268.661 88.4644C263.285 87.0244 257.381 85.2964 257.381 78.7684C257.381 72.8164 261.989 69.4084 269.381 69.4084C277.205 69.4084 282.293 73.3924 282.821 80.3044H277.349C276.773 76.1764 274.421 73.9204 269.429 73.9204C265.109 73.9204 262.901 75.5044 262.901 78.4804C262.901 82.3204 266.501 83.1364 270.917 84.2404C277.541 85.9204 283.781 87.5044 283.781 94.7524C283.781 100.656 279.797 105.072 271.205 105.072ZM297.969 104.4H292.641V74.6404H281.553V70.0804H309.057V74.6404H297.969V104.4ZM323.435 105.072C314.027 105.072 310.043 100.128 310.043 92.7364V70.0804H315.323V92.7364C315.323 98.0644 318.011 100.512 323.435 100.512C328.907 100.512 331.547 98.0644 331.547 92.7364V70.0804H336.875V92.7364C336.875 100.128 332.891 105.072 323.435 105.072ZM345.774 104.4H340.59V70.0804H347.55L357.438 97.0564H357.534L367.47 70.0804H374.43V104.4H369.246V77.7604H369.15L359.694 104.4H355.326L345.87 77.7604H345.774V104.4ZM403.119 104.4H378.351V70.0804H402.639V74.6404H383.631V84.3844H400.287V88.9444H383.631V99.8404H403.119V104.4ZM-5.96167 162.4H-11.5297L1.23833 128.08H6.95033L19.8143 162.4H14.0543L11.2223 154.144H-3.12967L-5.96167 162.4ZM4.02233 132.976L-1.54567 149.68H9.73433L4.11833 132.976H4.02233ZM33.5802 163.072C23.8362 163.072 17.5482 155.584 17.5482 145.264C17.5482 134.896 23.8842 127.408 33.6282 127.408C42.2202 127.408 47.5482 132.88 48.3642 139.744H42.8442C42.2202 136.384 40.1082 131.968 33.5322 131.968C25.9482 131.968 23.0682 138.4 23.0682 145.216C23.0682 152.08 25.9482 158.512 33.5322 158.512C40.1562 158.512 42.5082 154.096 42.8442 149.92H48.3642C47.5962 157.552 42.2202 163.072 33.5802 163.072ZM64.5908 163.072C54.8468 163.072 48.5588 155.584 48.5588 145.264C48.5588 134.896 54.8948 127.408 64.6388 127.408C73.2308 127.408 78.5588 132.88 79.3748 139.744H73.8548C73.2308 136.384 71.1188 131.968 64.5428 131.968C56.9588 131.968 54.0788 138.4 54.0788 145.216C54.0788 152.08 56.9588 158.512 64.5428 158.512C71.1668 158.512 73.5188 154.096 73.8548 149.92H79.3748C78.6068 157.552 73.2308 163.072 64.5908 163.072ZM106.017 162.4H81.2494V128.08H105.537V132.64H86.5294V142.384H103.185V146.944H86.5294V157.84H106.017V162.4ZM121 163.072C112.312 163.072 106.216 158.56 105.832 150.832H111.304C111.688 155.44 114.424 158.56 120.856 158.56C126.376 158.56 128.056 156.16 128.056 153.04C128.056 148.672 124.696 148.048 118.456 146.464C113.08 145.024 107.176 143.296 107.176 136.768C107.176 130.816 111.784 127.408 119.176 127.408C127 127.408 132.088 131.392 132.616 138.304H127.144C126.568 134.176 124.216 131.92 119.224 131.92C114.904 131.92 112.696 133.504 112.696 136.48C112.696 140.32 116.296 141.136 120.712 142.24C127.336 143.92 133.576 145.504 133.576 152.752C133.576 158.656 129.592 163.072 121 163.072ZM148.448 163.072C139.76 163.072 133.664 158.56 133.28 150.832H138.752C139.136 155.44 141.872 158.56 148.304 158.56C153.824 158.56 155.504 156.16 155.504 153.04C155.504 148.672 152.144 148.048 145.904 146.464C140.528 145.024 134.624 143.296 134.624 136.768C134.624 130.816 139.232 127.408 146.624 127.408C154.448 127.408 159.536 131.392 160.064 138.304H154.592C154.016 134.176 151.664 131.92 146.672 131.92C142.352 131.92 140.144 133.504 140.144 136.48C140.144 140.32 143.744 141.136 148.16 142.24C154.784 143.92 161.024 145.504 161.024 152.752C161.024 158.656 157.04 163.072 148.448 163.072ZM178.152 163.072C167.88 163.072 161.304 155.536 161.304 145.216C161.304 134.896 167.88 127.408 178.152 127.408C188.424 127.408 195 134.896 195 145.216C195 155.536 188.424 163.072 178.152 163.072ZM178.152 158.512C186.264 158.512 189.48 152.272 189.48 145.216C189.48 138.16 186.264 131.968 178.152 131.968C170.04 131.968 166.824 138.16 166.824 145.216C166.824 152.272 170.04 158.512 178.152 158.512ZM202.556 162.4H197.276V128.08H211.58C219.164 128.08 223.244 131.632 223.244 137.968C223.244 142.336 220.604 145.504 216.812 146.368V146.464C224.78 147.952 221.852 161.488 223.724 162.064V162.4H218.06C216.524 160.96 219.788 148.96 211.388 148.96H202.556V162.4ZM202.556 144.4H210.428C215.276 144.4 217.916 142.288 217.916 138.352C217.916 134.656 215.804 132.64 210.524 132.64H202.556V144.4ZM231.176 162.4H225.896V128.08H231.176V162.4ZM259.878 162.4H235.11V128.08H259.398V132.64H240.39V142.384H257.046V146.944H240.39V157.84H259.878V162.4ZM274.861 163.072C266.173 163.072 260.077 158.56 259.693 150.832H265.165C265.549 155.44 268.285 158.56 274.717 158.56C280.237 158.56 281.917 156.16 281.917 153.04C281.917 148.672 278.557 148.048 272.317 146.464C266.941 145.024 261.037 143.296 261.037 136.768C261.037 130.816 265.645 127.408 273.037 127.408C280.861 127.408 285.949 131.392 286.477 138.304H281.005C280.429 134.176 278.077 131.92 273.085 131.92C268.765 131.92 266.557 133.504 266.557 136.48C266.557 140.32 270.157 141.136 274.573 142.24C281.197 143.92 287.437 145.504 287.437 152.752C287.437 158.656 283.453 163.072 274.861 163.072ZM301.732 162.4H296.548V128.08H303.508L313.396 155.056H313.492L323.428 128.08H330.388V162.4H325.204V135.76H325.108L315.652 162.4H311.284L301.828 135.76H301.732V162.4ZM336.661 162.4H331.093L343.861 128.08H349.573L362.437 162.4H356.677L353.845 154.144H339.493L336.661 162.4ZM346.645 132.976L341.077 149.68H352.357L346.741 132.976H346.645ZM391.676 162.4H385.484L373.868 145.888L368.396 151.696V162.4H363.116V128.08H368.396V145.456L384.668 128.08H390.572L377.132 142.384L391.676 162.4ZM416.27 162.4H391.502V128.08H415.79V132.64H396.782V142.384H413.438V146.944H396.782V157.84H416.27V162.4ZM438.644 163.072C429.236 163.072 425.252 158.128 425.252 150.736V128.08H430.532V150.736C430.532 156.064 433.22 158.512 438.644 158.512C444.116 158.512 446.756 156.064 446.756 150.736V128.08H452.084V150.736C452.084 158.128 448.1 163.072 438.644 163.072ZM461.079 162.4H455.799V128.08H470.103C476.583 128.08 481.335 131.104 481.335 138.304C481.335 145.504 476.583 148.48 470.103 148.48H461.079V162.4ZM461.079 143.92H469.863C473.847 143.92 475.863 142.144 475.863 138.304C475.863 134.416 473.847 132.64 469.863 132.64H461.079V143.92ZM-3.03367 220.4H-8.31367V186.08H5.99033C12.4703 186.08 17.2223 189.104 17.2223 196.304C17.2223 203.504 12.4703 206.48 5.99033 206.48H-3.03367V220.4ZM-3.03367 201.92H5.75033C9.73433 201.92 11.7503 200.144 11.7503 196.304C11.7503 192.416 9.73433 190.64 5.75033 190.64H-3.03367V201.92ZM24.0394 220.4H18.7594V186.08H33.0634C40.6474 186.08 44.7274 189.632 44.7274 195.968C44.7274 200.336 42.0874 203.504 38.2954 204.368V204.464C46.2634 205.952 43.3354 219.488 45.2074 220.064V220.4H39.5434C38.0074 218.96 41.2714 206.96 32.8714 206.96H24.0394V220.4ZM24.0394 202.4H31.9114C36.7594 202.4 39.3994 200.288 39.3994 196.352C39.3994 192.656 37.2874 190.64 32.0074 190.64H24.0394V202.4ZM62.5006 221.072C52.2286 221.072 45.6526 213.536 45.6526 203.216C45.6526 192.896 52.2286 185.408 62.5006 185.408C72.7726 185.408 79.3486 192.896 79.3486 203.216C79.3486 213.536 72.7726 221.072 62.5006 221.072ZM62.5006 216.512C70.6126 216.512 73.8286 210.272 73.8286 203.216C73.8286 196.16 70.6126 189.968 62.5006 189.968C54.3886 189.968 51.1726 196.16 51.1726 203.216C51.1726 210.272 54.3886 216.512 62.5006 216.512ZM86.9044 220.4H81.6244V186.08H95.9284C102.408 186.08 107.16 189.104 107.16 196.304C107.16 203.504 102.408 206.48 95.9284 206.48H86.9044V220.4ZM86.9044 201.92H95.6884C99.6724 201.92 101.688 200.144 101.688 196.304C101.688 192.416 99.6724 190.64 95.6884 190.64H86.9044V201.92ZM133.466 220.4H108.698V186.08H132.986V190.64H113.978V200.384H130.634V204.944H113.978V215.84H133.466V220.4ZM140.816 220.4H135.536V186.08H149.84C157.424 186.08 161.504 189.632 161.504 195.968C161.504 200.336 158.864 203.504 155.072 204.368V204.464C163.04 205.952 160.112 219.488 161.984 220.064V220.4H156.32C154.784 218.96 158.048 206.96 149.648 206.96H140.816V220.4ZM140.816 202.4H148.688C153.536 202.4 156.176 200.288 156.176 196.352C156.176 192.656 154.064 190.64 148.784 190.64H140.816V202.4ZM176.619 220.4H171.291V190.64H160.203V186.08H187.707V190.64H176.619V220.4ZM203.477 220.4H198.149V206.672L185.861 186.08H191.573L200.789 202.496H200.885L210.101 186.08H215.765L203.477 206.672V220.4ZM227.499 220.4H222.219V186.08H246.027V190.64H227.499V200.96H242.475V205.52H227.499V220.4ZM252.651 220.4H247.371V186.08H252.651V220.4ZM279.24 220.4H256.584V186.08H261.864V215.84H279.24V220.4ZM288.292 220.4H282.964V190.64H271.876V186.08H299.38V190.64H288.292V220.4ZM325.374 220.4H300.606V186.08H324.894V190.64H305.886V200.384H322.542V204.944H305.886V215.84H325.374V220.4ZM332.724 220.4H327.444V186.08H341.748C349.332 186.08 353.412 189.632 353.412 195.968C353.412 200.336 350.772 203.504 346.98 204.368V204.464C354.948 205.952 352.02 219.488 353.892 220.064V220.4H348.228C346.692 218.96 349.956 206.96 341.556 206.96H332.724V220.4ZM332.724 202.4H340.596C345.444 202.4 348.084 200.288 348.084 196.352C348.084 192.656 345.972 190.64 340.692 190.64H332.724V202.4ZM378.528 220.4H363.216V186.08H377.664C384.72 186.08 388.848 189.248 388.848 194.72C388.848 198.944 386.352 200.912 383.52 201.872V201.968C387.12 202.592 390.192 205.232 390.192 210.368C390.192 216.944 385.632 220.4 378.528 220.4ZM368.496 200.336H377.52C381.84 200.336 383.328 198.56 383.328 195.488C383.328 192.464 381.504 190.64 377.904 190.64H368.496V200.336ZM368.496 215.84H378.144C383.232 215.84 384.672 213.392 384.672 210.176C384.672 206.576 382.464 204.512 378.864 204.512H368.496V215.84ZM405.114 220.4H399.786V206.672L387.498 186.08H393.21L402.426 202.496H402.522L411.738 186.08H417.402L405.114 206.672V220.4ZM5.51033 279.072C-4.37767 279.072 -9.94567 271.584 -9.94567 261.216C-9.94567 250.896 -3.65767 243.408 6.13433 243.408C15.0143 243.408 19.7183 248.16 20.8223 254.688H15.3023C14.3903 250.368 11.1743 247.968 6.08633 247.968C-1.49767 247.968 -4.42567 254.784 -4.42567 261.216C-4.42567 267.696 -2.21767 274.512 5.79833 274.512C11.4623 274.512 15.9743 270.576 16.0223 264.864H5.89433V260.448H21.3983V278.4H17.7503L16.4543 273.648H16.3583C13.9583 277.152 10.7423 279.072 5.51033 279.072ZM48.9649 278.4H24.1969V244.08H48.4849V248.64H29.4769V258.384H46.1329V262.944H29.4769V273.84H48.9649V278.4ZM56.3157 278.4H51.0357V244.08H57.0837L73.0197 270.48H73.1157V244.08H78.4437V278.4H72.3957L56.4117 252H56.3157V278.4ZM87.6544 278.4H82.3744V244.08H96.6784C104.262 244.08 108.342 247.632 108.342 253.968C108.342 258.336 105.702 261.504 101.91 262.368V262.464C109.878 263.952 106.95 277.488 108.822 278.064V278.4H103.158C101.622 276.96 104.886 264.96 96.4864 264.96H87.6544V278.4ZM87.6544 260.4H95.5264C100.374 260.4 103.014 258.288 103.014 254.352C103.014 250.656 100.902 248.64 95.6224 248.64H87.6544V260.4ZM135.762 278.4H110.994V244.08H135.282V248.64H116.274V258.384H132.93V262.944H116.274V273.84H135.762V278.4ZM145.836 278.4H140.268L153.036 244.08H158.748L171.612 278.4H165.852L163.02 270.144H148.668L145.836 278.4ZM155.82 248.976L150.252 265.68H161.532L155.916 248.976H155.82ZM177.572 278.4H172.292V244.08H178.34L194.276 270.48H194.372V244.08H199.7V278.4H193.652L177.668 252H177.572V278.4ZM208.911 278.4H203.631V244.08H208.911V278.4ZM218.028 278.4H212.844V244.08H219.804L229.692 271.056H229.788L239.724 244.08H246.684V278.4H241.5V251.76H241.404L231.948 278.4H227.58L218.124 251.76H218.028V278.4ZM275.373 278.4H250.605V244.08H274.893V248.64H255.885V258.384H272.541V262.944H255.885V273.84H275.373V278.4ZM289.779 278.4H284.595V244.08H291.555L301.443 271.056H301.539L311.475 244.08H318.435V278.4H313.251V251.76H313.155L303.699 278.4H299.331L289.875 251.76H289.779V278.4ZM324.708 278.4H319.14L331.908 244.08H337.62L350.484 278.4H344.724L341.892 270.144H327.54L324.708 278.4ZM334.692 248.976L329.124 265.68H340.404L334.788 248.976H334.692ZM356.443 278.4H351.163V244.08H357.211L373.147 270.48H373.243V244.08H378.571V278.4H372.523L356.539 252H356.443V278.4ZM396.326 279.072C386.438 279.072 380.87 271.584 380.87 261.216C380.87 250.896 387.158 243.408 396.95 243.408C405.83 243.408 410.534 248.16 411.638 254.688H406.118C405.206 250.368 401.99 247.968 396.902 247.968C389.318 247.968 386.39 254.784 386.39 261.216C386.39 267.696 388.598 274.512 396.614 274.512C402.278 274.512 406.79 270.576 406.838 264.864H396.71V260.448H412.214V278.4H408.566L407.27 273.648H407.174C404.774 277.152 401.558 279.072 396.326 279.072ZM5.41433 336.4H0.0863276V306.64H-11.0017V302.08H16.5023V306.64H5.41433V336.4ZM23.0082 336.4H17.7282V302.08H32.0322C39.6162 302.08 43.6962 305.632 43.6962 311.968C43.6962 316.336 41.0562 319.504 37.2642 320.368V320.464C45.2322 321.952 42.3042 335.488 44.1762 336.064V336.4H38.5122C36.9762 334.96 40.2402 322.96 31.8402 322.96H23.0082V336.4ZM23.0082 318.4H30.8802C35.7282 318.4 38.3682 316.288 38.3682 312.352C38.3682 308.656 36.2562 306.64 30.9762 306.64H23.0082V318.4ZM59.5002 337.072C50.0922 337.072 46.1082 332.128 46.1082 324.736V302.08H51.3882V324.736C51.3882 330.064 54.0762 332.512 59.5002 332.512C64.9722 332.512 67.6122 330.064 67.6122 324.736V302.08H72.9402V324.736C72.9402 332.128 68.9562 337.072 59.5002 337.072ZM89.5677 337.072C80.8797 337.072 74.7837 332.56 74.3997 324.832H79.8717C80.2557 329.44 82.9917 332.56 89.4237 332.56C94.9437 332.56 96.6237 330.16 96.6237 327.04C96.6237 322.672 93.2637 322.048 87.0237 320.464C81.6477 319.024 75.7437 317.296 75.7437 310.768C75.7437 304.816 80.3517 301.408 87.7437 301.408C95.5677 301.408 100.656 305.392 101.184 312.304H95.7117C95.1357 308.176 92.7837 305.92 87.7917 305.92C83.4717 305.92 81.2637 307.504 81.2637 310.48C81.2637 314.32 84.8637 315.136 89.2797 316.24C95.9037 317.92 102.144 319.504 102.144 326.752C102.144 332.656 98.1597 337.072 89.5677 337.072ZM116.332 336.4H111.004V306.64H99.9158V302.08H127.42V306.64H116.332V336.4ZM126.545 336.4H120.977L133.745 302.08H139.457L152.321 336.4H146.561L143.729 328.144H129.377L126.545 336.4ZM136.529 306.976L130.961 323.68H142.241L136.625 306.976H136.529ZM168.312 336.4H153V302.08H167.448C174.504 302.08 178.632 305.248 178.632 310.72C178.632 314.944 176.136 316.912 173.304 317.872V317.968C176.904 318.592 179.976 321.232 179.976 326.368C179.976 332.944 175.416 336.4 168.312 336.4ZM158.28 316.336H167.304C171.624 316.336 173.112 314.56 173.112 311.488C173.112 308.464 171.288 306.64 167.688 306.64H158.28V316.336ZM158.28 331.84H167.928C173.016 331.84 174.456 329.392 174.456 326.176C174.456 322.576 172.248 320.512 168.648 320.512H158.28V331.84ZM204.792 336.4H182.136V302.08H187.416V331.84H204.792V336.4ZM230.789 336.4H206.021V302.08H230.309V306.64H211.301V316.384H227.957V320.944H211.301V331.84H230.789V336.4ZM253.294 336.4H247.582L235.486 302.08H241.294L250.414 330.832H250.462L259.534 302.08H265.102L253.294 336.4ZM290.868 336.4H266.1V302.08H290.388V306.64H271.38V316.384H288.036V320.944H271.38V331.84H290.868V336.4ZM298.219 336.4H292.939V302.08H298.987L314.923 328.48H315.019V302.08H320.347V336.4H314.299L298.315 310H298.219V336.4ZM337.43 336.4H324.278V302.08H337.334C346.838 302.08 352.598 308.224 352.598 319.264C352.598 330.304 346.934 336.4 337.43 336.4ZM329.558 331.84H337.094C345.062 331.84 347.126 325.888 347.126 319.264C347.126 312.64 345.062 306.64 337.094 306.64H329.558V331.84ZM370.128 337.072C359.856 337.072 353.28 329.536 353.28 319.216C353.28 308.896 359.856 301.408 370.128 301.408C380.4 301.408 386.976 308.896 386.976 319.216C386.976 329.536 380.4 337.072 370.128 337.072ZM370.128 332.512C378.24 332.512 381.456 326.272 381.456 319.216C381.456 312.16 378.24 305.968 370.128 305.968C362.016 305.968 358.8 312.16 358.8 319.216C358.8 326.272 362.016 332.512 370.128 332.512ZM394.532 336.4H389.252V302.08H403.556C411.14 302.08 415.22 305.632 415.22 311.968C415.22 316.336 412.58 319.504 408.788 320.368V320.464C416.756 321.952 413.828 335.488 415.7 336.064V336.4H410.036C408.5 334.96 411.764 322.96 403.364 322.96H394.532V336.4ZM394.532 318.4H402.404C407.252 318.4 409.892 316.288 409.892 312.352C409.892 308.656 407.78 306.64 402.5 306.64H394.532V318.4ZM-5.96167 394.4H-11.5297L1.23833 360.08H6.95033L19.8143 394.4H14.0543L11.2223 386.144H-3.12967L-5.96167 394.4ZM4.02233 364.976L-1.54567 381.68H9.73433L4.11833 364.976H4.02233ZM43.1498 394.4H20.4938V360.08H25.7738V389.84H43.1498V394.4ZM67.0354 394.4H44.3794V360.08H49.6594V389.84H67.0354V394.4ZM79.3838 394.4H74.1038V360.08H79.3838V394.4ZM88.5976 394.4H83.3176V360.08H89.3656L105.302 386.48H105.398V360.08H110.726V394.4H104.678L88.6936 368H88.5976V394.4ZM136.976 395.072C126.704 395.072 120.128 387.536 120.128 377.216C120.128 366.896 126.704 359.408 136.976 359.408C147.248 359.408 153.824 366.896 153.824 377.216C153.824 387.536 147.248 395.072 136.976 395.072ZM136.976 390.512C145.088 390.512 148.304 384.272 148.304 377.216C148.304 370.16 145.088 363.968 136.976 363.968C128.864 363.968 125.648 370.16 125.648 377.216C125.648 384.272 128.864 390.512 136.976 390.512ZM161.379 394.4H156.099V360.08H162.147L178.083 386.48H178.179V360.08H183.507V394.4H177.459L161.475 368H161.379V394.4ZM212.206 394.4H187.438V360.08H211.726V364.64H192.718V374.384H209.374V378.944H192.718V389.84H212.206V394.4ZM222.28 394.4H216.712L229.48 360.08H235.192L248.056 394.4H242.296L239.464 386.144H225.112L222.28 394.4ZM232.264 364.976L226.696 381.68H237.976L232.36 364.976H232.264ZM254.016 394.4H248.736V360.08H263.04C269.52 360.08 274.272 363.104 274.272 370.304C274.272 377.504 269.52 380.48 263.04 380.48H254.016V394.4ZM254.016 375.92H262.8C266.784 375.92 268.8 374.144 268.8 370.304C268.8 366.416 266.784 364.64 262.8 364.64H254.016V375.92ZM281.089 394.4H275.809V360.08H290.113C296.593 360.08 301.345 363.104 301.345 370.304C301.345 377.504 296.593 380.48 290.113 380.48H281.089V394.4ZM281.089 375.92H289.873C293.857 375.92 295.873 374.144 295.873 370.304C295.873 366.416 293.857 364.64 289.873 364.64H281.089V375.92ZM325.538 394.4H302.882V360.08H308.162V389.84H325.538V394.4ZM332.048 394.4H326.768V360.08H332.048V394.4ZM350.333 395.072C340.589 395.072 334.301 387.584 334.301 377.264C334.301 366.896 340.637 359.408 350.381 359.408C358.973 359.408 364.301 364.88 365.117 371.744H359.597C358.973 368.384 356.861 363.968 350.285 363.968C342.701 363.968 339.821 370.4 339.821 377.216C339.821 384.08 342.701 390.512 350.285 390.512C356.909 390.512 359.261 386.096 359.597 381.92H365.117C364.349 389.552 358.973 395.072 350.333 395.072ZM368.5 394.4H362.932L375.7 360.08H381.412L394.276 394.4H388.516L385.684 386.144H371.332L368.5 394.4ZM378.484 364.976L372.916 381.68H384.196L378.58 364.976H378.484ZM404.231 394.4H398.903V364.64H387.815V360.08H415.319V364.64H404.231V394.4ZM421.824 394.4H416.544V360.08H421.824V394.4ZM440.926 395.072C430.654 395.072 424.078 387.536 424.078 377.216C424.078 366.896 430.654 359.408 440.926 359.408C451.198 359.408 457.774 366.896 457.774 377.216C457.774 387.536 451.198 395.072 440.926 395.072ZM440.926 390.512C449.038 390.512 452.254 384.272 452.254 377.216C452.254 370.16 449.038 363.968 440.926 363.968C432.814 363.968 429.598 370.16 429.598 377.216C429.598 384.272 432.814 390.512 440.926 390.512ZM465.33 394.4H460.05V360.08H466.098L482.034 386.48H482.13V360.08H487.458V394.4H481.41L465.426 368H465.33V394.4Z" fill="url(#paint0_linear_1710_1342)" fill-opacity="0.16"/>
<path d="M156.033 233.564H212.992V295.069L218.559 325.07L225.726 353.33L228.165 353.186L230.319 358.003L233.137 364.021L236.951 371.217L240.906 377.944L245.133 384.605L249.982 391.551L255.183 398.374L228.165 392.007L204.904 422.568C173.791 394.478 156.033 354.521 156.033 312.603V233.564Z" fill="#FE8E76"/>
<path d="M160.48 348.922H168.808V365.879L166.345 365.07L164.067 363.79L163.116 360.37L162.239 356.91L161.283 352.918L160.638 349.966L160.48 348.922Z" fill="#FE8E76"/>
<path d="M234.64 210.891C232.574 209.059 232.228 205.772 233.866 203.549L263.323 163.592C266.6 159.146 272.607 158.513 276.74 162.177L280.93 165.892C285.062 169.556 285.755 176.129 282.478 180.575L253.021 220.532C251.382 222.755 248.379 223.072 246.313 221.24L234.64 210.891Z" fill="#FE8E76"/>
<path d="M120.271 168.526C117.556 169.031 114.946 167.24 114.441 164.525L106.386 121.25C105.375 115.821 108.957 110.6 114.387 109.589L119.272 108.68C124.702 107.669 129.923 111.252 130.933 116.681L138.988 159.956C139.494 162.671 137.702 165.281 134.988 165.786L120.271 168.526Z" fill="#FE8E76"/>
<path d="M234.371 33.0778H149.525C138.479 33.0778 129.525 42.0321 129.525 53.0778V251.42C129.525 262.466 138.479 271.42 149.525 271.42H234.371C245.417 271.42 254.371 262.466 254.371 251.42V53.0778C254.371 42.0321 245.417 33.0778 234.371 33.0778Z" fill="#1E1E1E"/>
<path d="M234.831 37.6176H149.065C140.781 37.6176 134.065 44.3333 134.065 52.6176V251.88C134.065 260.164 140.781 266.88 149.065 266.88H234.831C243.115 266.88 249.831 260.164 249.831 251.88V52.6176C249.831 44.3333 243.115 37.6176 234.831 37.6176Z" fill="#FBFAF5"/>
<path d="M165.844 35.3477H219.187V45.1021C219.187 47.8636 216.948 50.1021 214.187 50.1021H170.844C168.082 50.1021 165.844 47.8636 165.844 45.1021V35.3477Z" fill="#1E1E1E"/>
<path d="M190.772 157.749H188.966L185.578 152.933L183.982 154.627V157.749H182.442V147.739H183.982V152.807L188.728 147.739H190.45L186.53 151.911L190.772 157.749ZM194.502 157.945C191.506 157.945 189.588 155.747 189.588 152.737C189.588 149.727 191.506 147.543 194.502 147.543C197.498 147.543 199.416 149.727 199.416 152.737C199.416 155.747 197.498 157.945 194.502 157.945ZM194.502 156.615C196.868 156.615 197.806 154.795 197.806 152.737C197.806 150.679 196.868 148.873 194.502 148.873C192.136 148.873 191.198 150.679 191.198 152.737C191.198 154.795 192.136 156.615 194.502 156.615ZM203.846 157.945C201.312 157.945 199.534 156.629 199.422 154.375H201.018C201.13 155.719 201.928 156.629 203.804 156.629C205.414 156.629 205.904 155.929 205.904 155.019C205.904 153.745 204.924 153.563 203.104 153.101C201.536 152.681 199.814 152.177 199.814 150.273C199.814 148.537 201.158 147.543 203.314 147.543C205.596 147.543 207.08 148.705 207.234 150.721H205.638C205.47 149.517 204.784 148.859 203.328 148.859C202.068 148.859 201.424 149.321 201.424 150.189C201.424 151.309 202.474 151.547 203.762 151.869C205.694 152.359 207.514 152.821 207.514 154.935C207.514 156.657 206.352 157.945 203.846 157.945ZM211.922 157.945C209.178 157.945 208.016 156.503 208.016 154.347V147.739H209.556V154.347C209.556 155.901 210.34 156.615 211.922 156.615C213.518 156.615 214.288 155.901 214.288 154.347V147.739H215.842V154.347C215.842 156.503 214.68 157.945 211.922 157.945Z" fill="#1E1E1E"/>
<path d="M170.271 154.666V153.901H171.036V154.666H170.271Z" fill="#0000C8"/>
<path d="M171.036 154.666C171.458 154.666 171.801 154.323 171.801 153.901C171.801 153.479 171.458 153.136 171.036 153.136C170.614 153.136 170.271 153.479 170.271 153.901C170.271 154.323 170.614 154.666 171.036 154.666Z" fill="#FFFFFC"/>
<path d="M166.448 151.607H170.271V158.489H169.448C167.791 158.489 166.448 157.146 166.448 155.489V151.607Z" fill="#0000C8"/>
<path d="M169.506 158.489V154.665H179.448V158.489H169.506Z" fill="#0000C8"/>
<path d="M166.448 147.018V150.842H179.448V147.018H166.448Z" fill="#0000C8"/>
<path d="M175.624 153.901V147.018C177.736 147.018 179.447 148.73 179.447 150.842V151.733C179.447 152.119 179.213 152.465 178.855 152.608L175.624 153.901Z" fill="#0000C8"/>
<path d="M175.623 150.841L175.624 151.606L174.859 151.607L174.858 150.842L175.623 150.841Z" fill="#0000C8"/>
<path d="M174.858 150.842C174.436 150.843 174.094 151.186 174.094 151.608C174.095 152.03 174.438 152.372 174.86 152.372C175.282 152.371 175.624 152.028 175.624 151.606C175.623 151.184 175.28 150.842 174.858 150.842Z" fill="#FFFFFC"/>
<path d="M111.311 226.63C110.714 223.933 112.416 221.264 115.113 220.667L158.091 211.157C163.483 209.964 168.822 213.368 170.015 218.76L171.089 223.612C172.282 229.005 168.878 234.343 163.486 235.536L120.507 245.047C117.811 245.643 115.142 243.941 114.545 241.245L111.311 226.63Z" fill="#FE8E76"/>
<path d="M111.311 226.63C110.714 223.933 112.416 221.264 115.113 220.667L158.091 211.157C163.483 209.964 168.822 213.368 170.015 218.76L171.089 223.612C172.282 229.005 168.878 234.343 163.486 235.536L120.507 245.047C117.811 245.643 115.142 243.941 114.545 241.245L111.311 226.63Z" fill="#FE8E76"/>
<path d="M107.731 196.775C107.619 194.016 109.765 191.688 112.524 191.576L156.506 189.792C162.024 189.568 166.679 193.86 166.903 199.378L167.105 204.343C167.328 209.861 163.036 214.516 157.518 214.74L113.536 216.525C110.777 216.637 108.45 214.491 108.338 211.732L107.731 196.775Z" fill="#FE8E76"/>
<path d="M109.661 169.233C109.92 166.484 112.358 164.464 115.107 164.723L158.932 168.841C164.431 169.357 168.469 174.234 167.953 179.732L167.488 184.68C166.971 190.178 162.095 194.217 156.596 193.7L112.771 189.582C110.022 189.324 108.003 186.886 108.261 184.136L109.661 169.233Z" fill="#FE8E76"/>
<path d="M116.872 163.902C116.597 163.878 116.354 164.082 116.331 164.357C116.307 164.632 116.51 164.875 116.785 164.899L116.872 163.902ZM116.785 164.899L131.528 166.179L131.614 165.183L116.872 163.902L116.785 164.899Z" fill="#1E1E1E"/>
<path d="M130.9 190.895L160.611 191.984" stroke="#1E1E1E" stroke-linecap="round"/>
<path d="M139.893 215.266L161.926 212.094" stroke="#1E1E1E" stroke-linecap="round"/>
<path d="M163.595 361.985H183.473V398.123L177.534 395.573L172.068 387.017L170.284 382.563L167.786 375.6L165.38 368.139L163.595 361.985Z" fill="#FE8E76"/>
<path d="M263.199 274.906C263.779 274.298 264.806 274.635 264.914 275.469L265.943 283.465C265.986 283.801 266.196 284.092 266.501 284.239L273.767 287.733C274.525 288.097 274.522 289.178 273.762 289.538L266.475 292.988C266.169 293.133 265.957 293.422 265.912 293.758L264.834 301.748C264.722 302.581 263.693 302.912 263.116 302.3L257.583 296.436C257.351 296.19 257.009 296.078 256.676 296.139L248.745 297.583C247.917 297.733 247.285 296.857 247.688 296.119L251.555 289.045C251.718 288.748 251.719 288.389 251.558 288.091L247.734 280.994C247.335 280.253 247.973 279.381 248.799 279.537L256.722 281.029C257.055 281.091 257.397 280.981 257.63 280.737L263.199 274.906Z" fill="#FEC904"/>
<path d="M109.059 77.4379C109.094 76.5975 110.088 76.1737 110.719 76.7299L113.757 79.4076C114.01 79.6314 114.36 79.7116 114.686 79.6206L118.587 78.5327C119.397 78.3067 120.107 79.1211 119.773 79.893L118.165 83.6095C118.031 83.9201 118.063 84.2777 118.25 84.5597L120.49 87.9331C120.956 88.6338 120.401 89.5609 119.563 89.4818L115.532 89.101C115.195 89.0692 114.864 89.21 114.654 89.4753L112.138 92.6481C111.615 93.3071 110.562 93.0658 110.379 92.2449L109.495 88.2931C109.421 87.9628 109.185 87.6922 108.868 87.5742L105.073 86.1617C104.285 85.8683 104.189 84.792 104.913 84.3638L108.398 82.3023C108.689 82.1299 108.874 81.8219 108.888 81.4837L109.059 77.4379Z" fill="#FEC904"/>
</g>
<path d="M35.8 532H24.84V503.4H35.72C43.64 503.4 48.44 508.52 48.44 517.72C48.44 526.92 43.72 532 35.8 532ZM29.24 528.2H35.52C42.16 528.2 43.88 523.24 43.88 517.72C43.88 512.2 42.16 507.2 35.52 507.2H29.24V528.2ZM54.8088 532H50.4088V503.4H54.8088V532ZM68.8469 532.56C61.6069 532.56 56.5269 528.8 56.2069 522.36H60.7669C61.0869 526.2 63.3669 528.8 68.7269 528.8C73.3269 528.8 74.7269 526.8 74.7269 524.2C74.7269 520.56 71.9269 520.04 66.7269 518.72C62.2469 517.52 57.3269 516.08 57.3269 510.64C57.3269 505.68 61.1669 502.84 67.3269 502.84C73.8469 502.84 78.0869 506.16 78.5269 511.92H73.9669C73.4869 508.48 71.5269 506.6 67.3669 506.6C63.7669 506.6 61.9269 507.92 61.9269 510.4C61.9269 513.6 64.9269 514.28 68.6069 515.2C74.1269 516.6 79.3269 517.92 79.3269 523.96C79.3269 528.88 76.0069 532.56 68.8469 532.56ZM92.9203 532.56C84.8003 532.56 79.5603 526.32 79.5603 517.72C79.5603 509.08 84.8403 502.84 92.9603 502.84C100.12 502.84 104.56 507.4 105.24 513.12H100.64C100.12 510.32 98.3603 506.64 92.8803 506.64C86.5603 506.64 84.1603 512 84.1603 517.68C84.1603 523.4 86.5603 528.76 92.8803 528.76C98.4003 528.76 100.36 525.08 100.64 521.6H105.24C104.6 527.96 100.12 532.56 92.9203 532.56ZM119.443 532.56C110.883 532.56 105.403 526.28 105.403 517.68C105.403 509.08 110.883 502.84 119.443 502.84C128.003 502.84 133.483 509.08 133.483 517.68C133.483 526.28 128.003 532.56 119.443 532.56ZM119.443 528.76C126.203 528.76 128.883 523.56 128.883 517.68C128.883 511.8 126.203 506.64 119.443 506.64C112.683 506.64 110.003 511.8 110.003 517.68C110.003 523.56 112.683 528.76 119.443 528.76ZM146.643 532H141.883L131.803 503.4H136.643L144.243 527.36H144.283L151.843 503.4H156.483L146.643 532ZM177.955 532H157.315V503.4H177.555V507.2H161.715V515.32H175.595V519.12H161.715V528.2H177.955V532ZM184.081 532H179.681V503.4H191.601C197.921 503.4 201.321 506.36 201.321 511.64C201.321 515.28 199.121 517.92 195.961 518.64V518.72C202.601 519.96 200.161 531.24 201.721 531.72V532H197.001C195.721 530.8 198.441 520.8 191.441 520.8H184.081V532ZM184.081 517H190.641C194.681 517 196.881 515.24 196.881 511.96C196.881 508.88 195.121 507.2 190.721 507.2H184.081V517ZM220.321 532H215.881V520.56L205.641 503.4H210.401L218.081 517.08H218.161L225.841 503.4H230.561L220.321 520.56V532ZM241.761 532.56C233.201 532.56 227.721 526.28 227.721 517.68C227.721 509.08 233.201 502.84 241.761 502.84C250.321 502.84 255.801 509.08 255.801 517.68C255.801 526.28 250.321 532.56 241.761 532.56ZM241.761 528.76C248.521 528.76 251.201 523.56 251.201 517.68C251.201 511.8 248.521 506.64 241.761 506.64C235.001 506.64 232.321 511.8 232.321 517.68C232.321 523.56 235.001 528.76 241.761 528.76ZM268.658 532.56C260.818 532.56 257.498 528.44 257.498 522.28V503.4H261.898V522.28C261.898 526.72 264.138 528.76 268.658 528.76C273.218 528.76 275.418 526.72 275.418 522.28V503.4H279.858V522.28C279.858 528.44 276.538 532.56 268.658 532.56ZM287.354 532H282.954V503.4H294.874C301.194 503.4 304.594 506.36 304.594 511.64C304.594 515.28 302.394 517.92 299.234 518.64V518.72C305.874 519.96 303.434 531.24 304.994 531.72V532H300.274C298.994 530.8 301.714 520.8 294.714 520.8H287.354V532ZM287.354 517H293.914C297.954 517 300.154 515.24 300.154 511.96C300.154 508.88 298.394 507.2 293.994 507.2H287.354V517ZM36.8 580.56C28.68 580.56 23.44 574.32 23.44 565.72C23.44 557.08 28.72 550.84 36.84 550.84C44 550.84 48.44 555.4 49.12 561.12H44.52C44 558.32 42.24 554.64 36.76 554.64C30.44 554.64 28.04 560 28.04 565.68C28.04 571.4 30.44 576.76 36.76 576.76C42.28 576.76 44.24 573.08 44.52 569.6H49.12C48.48 575.96 44 580.56 36.8 580.56ZM63.3222 580.56C54.7622 580.56 49.2822 574.28 49.2822 565.68C49.2822 557.08 54.7622 550.84 63.3222 550.84C71.8822 550.84 77.3622 557.08 77.3622 565.68C77.3622 574.28 71.8822 580.56 63.3222 580.56ZM63.3222 576.76C70.0822 576.76 72.7622 571.56 72.7622 565.68C72.7622 559.8 70.0822 554.64 63.3222 554.64C56.5622 554.64 53.8822 559.8 53.8822 565.68C53.8822 571.56 56.5622 576.76 63.3222 576.76ZM90.0188 580.56C82.7788 580.56 77.6988 576.8 77.3788 570.36H81.9388C82.2588 574.2 84.5388 576.8 89.8988 576.8C94.4988 576.8 95.8988 574.8 95.8988 572.2C95.8988 568.56 93.0988 568.04 87.8988 566.72C83.4188 565.52 78.4988 564.08 78.4988 558.64C78.4988 553.68 82.3388 550.84 88.4988 550.84C95.0188 550.84 99.2588 554.16 99.6988 559.92H95.1388C94.6588 556.48 92.6988 554.6 88.5388 554.6C84.9388 554.6 83.0988 555.92 83.0988 558.4C83.0988 561.6 86.0988 562.28 89.7788 563.2C95.2988 564.6 100.499 565.92 100.499 571.96C100.499 576.88 97.1788 580.56 90.0188 580.56ZM106.532 580H102.132V551.4H114.052C119.452 551.4 123.412 553.92 123.412 559.92C123.412 565.92 119.452 568.4 114.052 568.4H106.532V580ZM106.532 564.6H113.852C117.172 564.6 118.852 563.12 118.852 559.92C118.852 556.68 117.172 555.2 113.852 555.2H106.532V564.6ZM143.573 580H124.693V551.4H129.093V576.2H143.573V580ZM146.558 580H141.918L152.558 551.4H157.318L168.038 580H163.238L160.878 573.12H148.918L146.558 580ZM154.878 555.48L150.238 569.4H159.638L154.958 555.48H154.878ZM176.974 580H172.534V568.56L162.294 551.4H167.054L174.734 565.08H174.814L182.494 551.4H187.214L176.974 568.56V580ZM203.553 580H192.593V551.4H203.473C211.393 551.4 216.193 556.52 216.193 565.72C216.193 574.92 211.473 580 203.553 580ZM196.993 576.2H203.273C209.913 576.2 211.633 571.24 211.633 565.72C211.633 560.2 209.913 555.2 203.273 555.2H196.993V576.2ZM238.802 580H218.162V551.4H238.402V555.2H222.562V563.32H236.442V567.12H222.562V576.2H238.802V580ZM251.288 580.56C244.048 580.56 238.968 576.8 238.648 570.36H243.208C243.528 574.2 245.808 576.8 251.168 576.8C255.768 576.8 257.168 574.8 257.168 572.2C257.168 568.56 254.368 568.04 249.168 566.72C244.688 565.52 239.768 564.08 239.768 558.64C239.768 553.68 243.608 550.84 249.768 550.84C256.288 550.84 260.528 554.16 260.968 559.92H256.408C255.928 556.48 253.968 554.6 249.808 554.6C246.208 554.6 244.368 555.92 244.368 558.4C244.368 561.6 247.368 562.28 251.048 563.2C256.568 564.6 261.768 565.92 261.768 571.96C261.768 576.88 258.448 580.56 251.288 580.56ZM273.591 580H269.151V555.2H259.911V551.4H282.831V555.2H273.591V580ZM288.253 580H283.853V551.4H288.253V580ZM295.931 580H291.531V551.4H296.571L309.851 573.4H309.931V551.4H314.371V580H309.331L296.011 558H295.931V580ZM329.766 580H325.326V568.56L315.086 551.4H319.846L327.526 565.08H327.606L335.286 551.4H340.006L329.766 568.56V580Z" fill="#1A47BC"/>
<defs>
<linearGradient id="paint0_linear_1710_1342" x1="264" y1="0.400377" x2="264" y2="407.4" gradientUnits="userSpaceOnUse">
<stop stop-color="#1A47BC"/>
<stop offset="0.37" stop-color="#0280A8"/>
<stop offset="0.765" stop-color="#D9C86F"/>
<stop offset="1" stop-color="#FBFAF5"/>
</linearGradient>
<clipPath id="clip0_1710_1342">
<rect width="390" height="548" fill="white"/>
</clipPath>
</defs>
</svg>
