<svg width="25" height="25" viewBox="0 0 25 25" fill="none" xmlns="http://www.w3.org/2000/svg">
<path d="M8.69384 4.97631C10.6718 3.81281 11.6608 3.23106 12.75 3.23106C13.8392 3.23106 14.8282 3.81281 16.8062 4.97631L17.3062 5.27043C19.2317 6.40307 20.1944 6.96939 20.7222 7.89221C21.25 8.81502 21.25 9.93198 21.25 12.1659V13.0148C21.25 15.2487 21.25 16.3656 20.7222 17.2885C20.1944 18.2113 19.2317 18.7776 17.3062 19.9102L16.8062 20.2044C14.8282 21.3679 13.8392 21.9496 12.75 21.9496C11.6608 21.9496 10.6718 21.3679 8.69384 20.2044L8.19384 19.9102C6.26835 18.7776 5.3056 18.2113 4.7778 17.2885C4.25 16.3656 4.25 15.2487 4.25 13.0148V12.1659C4.25 9.93198 4.25 8.81502 4.7778 7.89221C5.3056 6.96939 6.26835 6.40307 8.19384 5.27043L8.69384 4.97631Z" stroke="#FEC904" stroke-width="2"/>
<path d="M4.98999 8.05249L12.75 12.574L20.51 8.05249M12.75 21.5903V12.5651" stroke="#FEC904" stroke-width="2" stroke-linecap="round" stroke-linejoin="round"/>
</svg>
