<svg width="25" height="25" viewBox="0 0 25 25" fill="none" xmlns="http://www.w3.org/2000/svg">
<path d="M8.19384 4.88598C10.1718 3.72248 11.1608 3.14073 12.25 3.14073C13.3392 3.14073 14.3282 3.72248 16.3062 4.88598L16.8062 5.18009C18.7317 6.31274 19.6944 6.87906 20.2222 7.80187C20.75 8.72469 20.75 9.84165 20.75 12.0756V12.9244C20.75 15.1583 20.75 16.2753 20.2222 17.1981C19.6944 18.1209 18.7317 18.6873 16.8062 19.8199L16.3062 20.114C14.3282 21.2775 13.3392 21.8593 12.25 21.8593C11.1608 21.8593 10.1718 21.2775 8.19384 20.114L7.69384 19.8199C5.76835 18.6873 4.8056 18.1209 4.2778 17.1981C3.75 16.2753 3.75 15.1583 3.75 12.9244V12.0756C3.75 9.84165 3.75 8.72469 4.2778 7.80187C4.8056 6.87906 5.76835 6.31274 7.69384 5.18009L8.19384 4.88598Z" stroke="#FBFAF5" stroke-width="2"/>
<path d="M4.48999 7.96216L12.25 12.4837L20.01 7.96216M12.25 21.4999V12.4747" stroke="#FBFAF5" stroke-width="2" stroke-linecap="round" stroke-linejoin="round"/>
</svg>
