<svg width="24" height="25" viewBox="0 0 24 25" fill="none" xmlns="http://www.w3.org/2000/svg">
<path d="M12.993 7.37504L12.5893 7.79545C12.2678 8.13026 11.7322 8.13026 11.4107 7.79545L11.007 7.37504C8.97661 5.26076 5.59482 5.26077 3.56444 7.37504C2.03172 8.9711 1.69762 11.3863 2.71894 13.3494C3.87844 15.578 5.62 17.4787 7.7453 18.8183L11.1811 20.9839L11.1812 20.9839C11.4572 21.1579 11.5952 21.2449 11.7418 21.284C11.911 21.3292 12.089 21.3292 12.2582 21.284C12.4048 21.2449 12.5428 21.1579 12.8188 20.9839L12.8189 20.9839L16.2547 18.8182C18.38 17.4787 20.1216 15.578 21.2811 13.3494C22.3024 11.3863 21.9683 8.9711 20.4356 7.37504C18.4052 5.26076 15.0234 5.26076 12.993 7.37504Z" stroke="#FEC904" stroke-width="2" stroke-linecap="round"/>
</svg>
