<svg width="25" height="25" viewBox="0 0 25 25" fill="none" xmlns="http://www.w3.org/2000/svg">
<path d="M13.493 7.37504L13.0893 7.79545C12.7678 8.13026 12.2323 8.13026 11.9107 7.79545L11.507 7.37504C9.47663 5.26076 6.09484 5.26077 4.06446 7.37504C2.53174 8.9711 2.19765 11.3863 3.21896 13.3494C4.37847 15.578 6.12003 17.4787 8.24532 18.8183L11.6812 20.9839L11.6812 20.9839C11.9572 21.1579 12.0952 21.2449 12.2419 21.284C12.411 21.3292 12.589 21.3292 12.7582 21.284C12.9048 21.2449 13.0428 21.1579 13.3189 20.9839L13.3189 20.9839L16.7547 18.8182C18.88 17.4787 20.6216 15.578 21.7811 13.3494C22.8024 11.3863 22.4683 8.9711 20.9356 7.37504C18.9052 5.26076 15.5234 5.26076 13.493 7.37504Z" stroke="#FBFAF5" stroke-width="2" stroke-linecap="round"/>
</svg>
