<svg width="100" height="101" viewBox="0 0 100 101" fill="none" xmlns="http://www.w3.org/2000/svg">
<mask id="mask0_1266_853" style="mask-type:alpha" maskUnits="userSpaceOnUse" x="0" y="0" width="100" height="101">
<circle cx="50" cy="50.948" r="50" fill="#1A47BC"/>
</mask>
<g mask="url(#mask0_1266_853)">
<circle cx="50" cy="50.948" r="50" fill="#1A47BC"/>
<circle cx="50" cy="50.948" r="50" fill="#FE8E76"/>
<mask id="mask1_1266_853" style="mask-type:alpha" maskUnits="userSpaceOnUse" x="27" y="38" width="18" height="21">
<ellipse cx="35.8732" cy="48.8452" rx="8.47572" ry="9.99558" fill="#FBFAF5"/>
</mask>
<g mask="url(#mask1_1266_853)">
<ellipse cx="35.8732" cy="48.8452" rx="8.47572" ry="9.99558" fill="#FBFAF5"/>
<ellipse cx="39.4794" cy="46.7292" rx="8.10002" ry="7.98405" fill="#1A47BC"/>
</g>
<mask id="mask2_1266_853" style="mask-type:alpha" maskUnits="userSpaceOnUse" x="55" y="38" width="18" height="21">
<ellipse cx="64.1266" cy="48.8452" rx="8.47572" ry="9.99558" fill="#FBFAF5"/>
</mask>
<g mask="url(#mask2_1266_853)">
<ellipse cx="64.1266" cy="48.8452" rx="8.47572" ry="9.99558" fill="#FBFAF5"/>
<ellipse cx="67.7314" cy="46.7292" rx="8.10002" ry="7.98405" fill="#1A47BC"/>
</g>
</g>
<path d="M58 60.4805C58 65.5299 54.4183 69.6233 50 69.6233C45.5817 69.6233 42 65.5299 42 60.4805" stroke="#1A47BC" stroke-width="1.5" stroke-linecap="round"/>
<path d="M42 60.4805H58" stroke="#1A47BC" stroke-width="1.5" stroke-linecap="round"/>
</svg>
